M48
; DRILL file {KiCad 5.1.12-5.1.12} date Fri 04 Feb 2022 10:44:26
; FORMAT={3:3/ absolute / metric / suppress trailing zeros}
; #@! TF.CreationDate,2022-02-04T10:44:26+11:00
; #@! TF.GenerationSoftware,Kicad,Pcbnew,5.1.12-5.1.12
; #@! TF.FileFunction,Plated,1,2,PTH
FMAT,2
METRIC,LZ
T1C0.800
T2C1.000
T3C1.016
T4C1.520
T5C3.000
%
G90
G05
T1
X07874Y-09398
X07874Y-1016
X08128Y-06604
X08128Y-0762
X08128Y-09398
X08128Y-1016
X08382Y-07874
X08382Y-0889
X08382Y-09398
X08382Y-1016
X08636Y-06604
X08636Y-0762
X08636Y-09398
X08636Y-1016
X0889Y-07874
X0889Y-0889
X0889Y-09398
X0889Y-1016
X09144Y-06604
X09144Y-0762
X09144Y-09398
X09144Y-1016
X09398Y-07874
X09398Y-0889
X09398Y-09398
X09398Y-1016
X09398Y-10668
X09648Y-10668
X09652Y-06604
X09652Y-0762
X09652Y-09398
X09652Y-1016
X09906Y-07874
X09906Y-0889
X1016Y-09398
X1016Y-1016
X10414Y-06604
X10414Y-0762
X10414Y-09398
X10414Y-1016
X10668Y-07874
X10668Y-0889
X10668Y-09398
X10668Y-1016
X10922Y-06604
X10922Y-0762
X10922Y-09398
X10922Y-1016
X11176Y-07874
X11176Y-0889
X11176Y-09398
X11176Y-1016
X1143Y-06604
X1143Y-0762
X1143Y-09398
X1143Y-1016
X11684Y-07874
X11684Y-0889
X11684Y-09398
X11684Y-1016
X11684Y-10668
X11934Y-10668
X11938Y-06604
X11938Y-0762
X11938Y-09398
X11938Y-1016
X12192Y-07874
X12192Y-0889
X12446Y-09398
X12446Y-1016
X12446Y-10668
X127Y-06604
X127Y-0762
X127Y-09398
X127Y-1016
X127Y-11938
X1295Y-11938
X12954Y-07874
X12954Y-0889
X12954Y-09398
X12954Y-1016
X13208Y-06604
X13208Y-0762
X13208Y-09398
X13208Y-1016
X13462Y-07874
X13462Y-0889
X13462Y-09398
X13462Y-1016
X13462Y-10668
X13716Y-06604
X13716Y-0762
X13716Y-09398
X13716Y-1016
X1397Y-07874
X1397Y-0889
X1397Y-09398
X1397Y-1016
X1397Y-10668
X1422Y-10668
X14224Y-06604
X14224Y-0762
X14224Y-09398
X14224Y-1016
X14478Y-07874
X14478Y-0889
X14732Y-09398
X14732Y-1016
X14986Y-06604
X14986Y-0762
X14986Y-09398
X14986Y-1016
X1524Y-07874
X1524Y-0889
X1524Y-09398
X1524Y-1016
X15494Y-06604
X15494Y-0762
X15494Y-09398
X15494Y-1016
X15748Y-07874
X15748Y-0889
X15748Y-09398
X15748Y-1016
X16002Y-06604
X16002Y-0762
X16002Y-09398
X16002Y-1016
X16256Y-07874
X16256Y-0889
X16256Y-09398
X16256Y-1016
X16256Y-10668
X16506Y-10668
X1651Y-06604
X1651Y-0762
X1651Y-09398
X1651Y-1016
X16764Y-07874
X16764Y-0889
T2
X0889Y-1143
X0889Y-11938
X09144Y-1143
X09144Y-11938
X13716Y-1143
X13716Y-11938
X1397Y-1143
X1397Y-11938
X14478Y-1143
X14478Y-11938
X14732Y-10668
X14732Y-1143
X14732Y-11938
X14986Y-10668
X14986Y-1143
X14986Y-11938
X1524Y-10668
X1524Y-1143
X1524Y-11938
X15494Y-1143
X15494Y-11938
X15748Y-1143
X15748Y-11938
T3
X08128Y-0508
X08128Y-05588
X08128Y-06096
X08382Y-0508
X08382Y-05588
X08382Y-06096
X08636Y-0508
X08636Y-05588
X08636Y-06096
X0889Y-0508
X0889Y-05588
X0889Y-06096
X09144Y-0508
X09144Y-05588
X09144Y-06096
X09398Y-0508
X09398Y-05588
X09398Y-06096
X09652Y-0508
X09652Y-05588
X09652Y-06096
X09906Y-0508
X09906Y-05588
X09906Y-06096
X10414Y-0508
X10414Y-05588
X10414Y-06096
X10668Y-0508
X10668Y-05588
X10668Y-06096
X10922Y-0508
X10922Y-05588
X10922Y-06096
X11176Y-0508
X11176Y-05588
X11176Y-06096
X1143Y-0508
X1143Y-05588
X1143Y-06096
X11684Y-0508
X11684Y-05588
X11684Y-06096
X11938Y-0508
X11938Y-05588
X11938Y-06096
X12192Y-0508
X12192Y-05588
X12192Y-06096
X127Y-0508
X127Y-05588
X127Y-06096
X12954Y-0508
X12954Y-05588
X12954Y-06096
X13208Y-0508
X13208Y-05588
X13208Y-06096
X13462Y-0508
X13462Y-05588
X13462Y-06096
X13716Y-0508
X13716Y-05588
X13716Y-06096
X1397Y-0508
X1397Y-05588
X1397Y-06096
X14224Y-0508
X14224Y-05588
X14224Y-06096
X14478Y-0508
X14478Y-05588
X14478Y-06096
X14986Y-0508
X14986Y-05588
X14986Y-06096
X1524Y-0508
X1524Y-05588
X1524Y-06096
X15494Y-0508
X15494Y-05588
X15494Y-06096
X15748Y-0508
X15748Y-05588
X15748Y-06096
X16002Y-0508
X16002Y-05588
X16002Y-06096
X16256Y-0508
X16256Y-05588
X16256Y-06096
X1651Y-0508
X1651Y-05588
X1651Y-06096
X16764Y-0508
X16764Y-05588
X16764Y-06096
T4
X09906Y-11684
X10414Y-11684
T5
X07874Y-04572
X07874Y-11938
X16764Y-04572
X16764Y-11938
T0
M30
