G04 #@! TF.GenerationSoftware,KiCad,Pcbnew,5.1.12-5.1.12*
G04 #@! TF.CreationDate,2022-02-04T10:44:24+11:00*
G04 #@! TF.ProjectId,sr32gpo,73723332-6770-46f2-9e6b-696361645f70,rev?*
G04 #@! TF.SameCoordinates,Original*
G04 #@! TF.FileFunction,Soldermask,Top*
G04 #@! TF.FilePolarity,Negative*
%FSLAX46Y46*%
G04 Gerber Fmt 4.6, Leading zero omitted, Abs format (unit mm)*
G04 Created by KiCad (PCBNEW 5.1.12-5.1.12) date 2022-02-04 10:44:24*
%MOMM*%
%LPD*%
G01*
G04 APERTURE LIST*
%ADD10R,2.000000X1.500000*%
%ADD11R,2.000000X3.800000*%
%ADD12C,2.082800*%
%ADD13O,1.700000X1.700000*%
%ADD14R,1.700000X1.700000*%
%ADD15C,1.600000*%
%ADD16C,3.000000*%
%ADD17R,3.000000X3.000000*%
%ADD18O,1.600000X1.600000*%
%ADD19R,1.600000X1.600000*%
%ADD20C,6.000000*%
G04 APERTURE END LIST*
G04 #@! TO.C,R2*
G36*
G01*
X132950000Y-108769999D02*
X132950000Y-109670001D01*
G75*
G02*
X132700001Y-109920000I-249999J0D01*
G01*
X131999999Y-109920000D01*
G75*
G02*
X131750000Y-109670001I0J249999D01*
G01*
X131750000Y-108769999D01*
G75*
G02*
X131999999Y-108520000I249999J0D01*
G01*
X132700001Y-108520000D01*
G75*
G02*
X132950000Y-108769999I0J-249999D01*
G01*
G37*
G36*
G01*
X134950000Y-108769999D02*
X134950000Y-109670001D01*
G75*
G02*
X134700001Y-109920000I-249999J0D01*
G01*
X133999999Y-109920000D01*
G75*
G02*
X133750000Y-109670001I0J249999D01*
G01*
X133750000Y-108769999D01*
G75*
G02*
X133999999Y-108520000I249999J0D01*
G01*
X134700001Y-108520000D01*
G75*
G02*
X134950000Y-108769999I0J-249999D01*
G01*
G37*
G04 #@! TD*
G04 #@! TO.C,C14*
G36*
G01*
X95700000Y-109695000D02*
X95700000Y-108745000D01*
G75*
G02*
X95950000Y-108495000I250000J0D01*
G01*
X96625000Y-108495000D01*
G75*
G02*
X96875000Y-108745000I0J-250000D01*
G01*
X96875000Y-109695000D01*
G75*
G02*
X96625000Y-109945000I-250000J0D01*
G01*
X95950000Y-109945000D01*
G75*
G02*
X95700000Y-109695000I0J250000D01*
G01*
G37*
G36*
G01*
X93625000Y-109695000D02*
X93625000Y-108745000D01*
G75*
G02*
X93875000Y-108495000I250000J0D01*
G01*
X94550000Y-108495000D01*
G75*
G02*
X94800000Y-108745000I0J-250000D01*
G01*
X94800000Y-109695000D01*
G75*
G02*
X94550000Y-109945000I-250000J0D01*
G01*
X93875000Y-109945000D01*
G75*
G02*
X93625000Y-109695000I0J250000D01*
G01*
G37*
G04 #@! TD*
G04 #@! TO.C,C13*
G36*
G01*
X118560000Y-109695000D02*
X118560000Y-108745000D01*
G75*
G02*
X118810000Y-108495000I250000J0D01*
G01*
X119485000Y-108495000D01*
G75*
G02*
X119735000Y-108745000I0J-250000D01*
G01*
X119735000Y-109695000D01*
G75*
G02*
X119485000Y-109945000I-250000J0D01*
G01*
X118810000Y-109945000D01*
G75*
G02*
X118560000Y-109695000I0J250000D01*
G01*
G37*
G36*
G01*
X116485000Y-109695000D02*
X116485000Y-108745000D01*
G75*
G02*
X116735000Y-108495000I250000J0D01*
G01*
X117410000Y-108495000D01*
G75*
G02*
X117660000Y-108745000I0J-250000D01*
G01*
X117660000Y-109695000D01*
G75*
G02*
X117410000Y-109945000I-250000J0D01*
G01*
X116735000Y-109945000D01*
G75*
G02*
X116485000Y-109695000I0J250000D01*
G01*
G37*
G04 #@! TD*
G04 #@! TO.C,C12*
G36*
G01*
X141188000Y-109695000D02*
X141188000Y-108745000D01*
G75*
G02*
X141438000Y-108495000I250000J0D01*
G01*
X142113000Y-108495000D01*
G75*
G02*
X142363000Y-108745000I0J-250000D01*
G01*
X142363000Y-109695000D01*
G75*
G02*
X142113000Y-109945000I-250000J0D01*
G01*
X141438000Y-109945000D01*
G75*
G02*
X141188000Y-109695000I0J250000D01*
G01*
G37*
G36*
G01*
X139113000Y-109695000D02*
X139113000Y-108745000D01*
G75*
G02*
X139363000Y-108495000I250000J0D01*
G01*
X140038000Y-108495000D01*
G75*
G02*
X140288000Y-108745000I0J-250000D01*
G01*
X140288000Y-109695000D01*
G75*
G02*
X140038000Y-109945000I-250000J0D01*
G01*
X139363000Y-109945000D01*
G75*
G02*
X139113000Y-109695000I0J250000D01*
G01*
G37*
G04 #@! TD*
G04 #@! TO.C,C11*
G36*
G01*
X164048000Y-109695000D02*
X164048000Y-108745000D01*
G75*
G02*
X164298000Y-108495000I250000J0D01*
G01*
X164973000Y-108495000D01*
G75*
G02*
X165223000Y-108745000I0J-250000D01*
G01*
X165223000Y-109695000D01*
G75*
G02*
X164973000Y-109945000I-250000J0D01*
G01*
X164298000Y-109945000D01*
G75*
G02*
X164048000Y-109695000I0J250000D01*
G01*
G37*
G36*
G01*
X161973000Y-109695000D02*
X161973000Y-108745000D01*
G75*
G02*
X162223000Y-108495000I250000J0D01*
G01*
X162898000Y-108495000D01*
G75*
G02*
X163148000Y-108745000I0J-250000D01*
G01*
X163148000Y-109695000D01*
G75*
G02*
X162898000Y-109945000I-250000J0D01*
G01*
X162223000Y-109945000D01*
G75*
G02*
X161973000Y-109695000I0J250000D01*
G01*
G37*
G04 #@! TD*
G04 #@! TO.C,C15*
G36*
G01*
X128720000Y-114775000D02*
X128720000Y-113825000D01*
G75*
G02*
X128970000Y-113575000I250000J0D01*
G01*
X129645000Y-113575000D01*
G75*
G02*
X129895000Y-113825000I0J-250000D01*
G01*
X129895000Y-114775000D01*
G75*
G02*
X129645000Y-115025000I-250000J0D01*
G01*
X128970000Y-115025000D01*
G75*
G02*
X128720000Y-114775000I0J250000D01*
G01*
G37*
G36*
G01*
X126645000Y-114775000D02*
X126645000Y-113825000D01*
G75*
G02*
X126895000Y-113575000I250000J0D01*
G01*
X127570000Y-113575000D01*
G75*
G02*
X127820000Y-113825000I0J-250000D01*
G01*
X127820000Y-114775000D01*
G75*
G02*
X127570000Y-115025000I-250000J0D01*
G01*
X126895000Y-115025000D01*
G75*
G02*
X126645000Y-114775000I0J250000D01*
G01*
G37*
G04 #@! TD*
D10*
G04 #@! TO.C,U11*
X113690000Y-114540000D03*
X113690000Y-119140000D03*
X113690000Y-116840000D03*
D11*
X119990000Y-116840000D03*
G04 #@! TD*
D12*
G04 #@! TO.C,J23*
X144780000Y-50800000D03*
X142240000Y-50800000D03*
X139700000Y-50800000D03*
X137160000Y-50800000D03*
X134620000Y-50800000D03*
X132080000Y-50800000D03*
X129540000Y-50800000D03*
X127000000Y-50800000D03*
G04 #@! TD*
G04 #@! TO.C,J33*
X121920000Y-50800000D03*
X119380000Y-50800000D03*
X116840000Y-50800000D03*
X114300000Y-50800000D03*
X111760000Y-50800000D03*
X109220000Y-50800000D03*
X106680000Y-50800000D03*
X104140000Y-50800000D03*
G04 #@! TD*
G04 #@! TO.C,J13*
X167640000Y-50800000D03*
X165100000Y-50800000D03*
X162560000Y-50800000D03*
X160020000Y-50800000D03*
X157480000Y-50800000D03*
X154940000Y-50800000D03*
X152400000Y-50800000D03*
X149860000Y-50800000D03*
G04 #@! TD*
G04 #@! TO.C,J43*
X99060000Y-50800000D03*
X96520000Y-50800000D03*
X93980000Y-50800000D03*
X91440000Y-50800000D03*
X88900000Y-50800000D03*
X86360000Y-50800000D03*
X83820000Y-50800000D03*
X81280000Y-50800000D03*
G04 #@! TD*
D13*
G04 #@! TO.C,J3*
X88900000Y-114300000D03*
D14*
X91440000Y-114300000D03*
G04 #@! TD*
D13*
G04 #@! TO.C,J2*
X88900000Y-119380000D03*
D14*
X91440000Y-119380000D03*
G04 #@! TD*
D13*
G04 #@! TO.C,J7*
X144780000Y-114300000D03*
X147320000Y-114300000D03*
X149860000Y-114300000D03*
X152400000Y-114300000D03*
X154940000Y-114300000D03*
D14*
X157480000Y-114300000D03*
G04 #@! TD*
D13*
G04 #@! TO.C,J6*
X144780000Y-119380000D03*
X147320000Y-119380000D03*
X149860000Y-119380000D03*
X152400000Y-119380000D03*
X154940000Y-119380000D03*
D14*
X157480000Y-119380000D03*
G04 #@! TD*
D15*
G04 #@! TO.C,C4*
X96480000Y-106680000D03*
X93980000Y-106680000D03*
G04 #@! TD*
G04 #@! TO.C,C3*
X119340000Y-106680000D03*
X116840000Y-106680000D03*
G04 #@! TD*
G04 #@! TO.C,C2*
X142200000Y-106680000D03*
X139700000Y-106680000D03*
G04 #@! TD*
G04 #@! TO.C,C1*
X165060000Y-106680000D03*
X162560000Y-106680000D03*
G04 #@! TD*
D13*
G04 #@! TO.C,J5*
X137160000Y-114300000D03*
D14*
X139700000Y-114300000D03*
G04 #@! TD*
D13*
G04 #@! TO.C,J4*
X137160000Y-119380000D03*
D14*
X139700000Y-119380000D03*
G04 #@! TD*
D16*
G04 #@! TO.C,J1*
X104140000Y-116840000D03*
D17*
X99060000Y-116840000D03*
G04 #@! TD*
D12*
G04 #@! TO.C,J42*
X81280000Y-55880000D03*
X83820000Y-55880000D03*
X86360000Y-55880000D03*
X88900000Y-55880000D03*
X91440000Y-55880000D03*
X93980000Y-55880000D03*
X96520000Y-55880000D03*
X99060000Y-55880000D03*
G04 #@! TD*
G04 #@! TO.C,J41*
X81280000Y-60960000D03*
X83820000Y-60960000D03*
X86360000Y-60960000D03*
X88900000Y-60960000D03*
X91440000Y-60960000D03*
X93980000Y-60960000D03*
X96520000Y-60960000D03*
X99060000Y-60960000D03*
G04 #@! TD*
G04 #@! TO.C,J32*
X104140000Y-55880000D03*
X106680000Y-55880000D03*
X109220000Y-55880000D03*
X111760000Y-55880000D03*
X114300000Y-55880000D03*
X116840000Y-55880000D03*
X119380000Y-55880000D03*
X121920000Y-55880000D03*
G04 #@! TD*
G04 #@! TO.C,J31*
X104140000Y-60960000D03*
X106680000Y-60960000D03*
X109220000Y-60960000D03*
X111760000Y-60960000D03*
X114300000Y-60960000D03*
X116840000Y-60960000D03*
X119380000Y-60960000D03*
X121920000Y-60960000D03*
G04 #@! TD*
G04 #@! TO.C,J22*
X127000000Y-55880000D03*
X129540000Y-55880000D03*
X132080000Y-55880000D03*
X134620000Y-55880000D03*
X137160000Y-55880000D03*
X139700000Y-55880000D03*
X142240000Y-55880000D03*
X144780000Y-55880000D03*
G04 #@! TD*
G04 #@! TO.C,J21*
X127000000Y-60960000D03*
X129540000Y-60960000D03*
X132080000Y-60960000D03*
X134620000Y-60960000D03*
X137160000Y-60960000D03*
X139700000Y-60960000D03*
X142240000Y-60960000D03*
X144780000Y-60960000D03*
G04 #@! TD*
G04 #@! TO.C,J12*
X149860000Y-55880000D03*
X152400000Y-55880000D03*
X154940000Y-55880000D03*
X157480000Y-55880000D03*
X160020000Y-55880000D03*
X162560000Y-55880000D03*
X165100000Y-55880000D03*
X167640000Y-55880000D03*
G04 #@! TD*
G04 #@! TO.C,J11*
X149860000Y-60960000D03*
X152400000Y-60960000D03*
X154940000Y-60960000D03*
X157480000Y-60960000D03*
X160020000Y-60960000D03*
X162560000Y-60960000D03*
X165100000Y-60960000D03*
X167640000Y-60960000D03*
G04 #@! TD*
D18*
G04 #@! TO.C,R48*
X81280000Y-66040000D03*
D15*
X81280000Y-76200000D03*
G04 #@! TD*
D18*
G04 #@! TO.C,R47*
X83820000Y-78740000D03*
D15*
X83820000Y-88900000D03*
G04 #@! TD*
D18*
G04 #@! TO.C,R46*
X86360000Y-66040000D03*
D15*
X86360000Y-76200000D03*
G04 #@! TD*
D18*
G04 #@! TO.C,R45*
X88900000Y-78740000D03*
D15*
X88900000Y-88900000D03*
G04 #@! TD*
D18*
G04 #@! TO.C,R44*
X91440000Y-66040000D03*
D15*
X91440000Y-76200000D03*
G04 #@! TD*
D18*
G04 #@! TO.C,R43*
X93980000Y-78740000D03*
D15*
X93980000Y-88900000D03*
G04 #@! TD*
D18*
G04 #@! TO.C,R42*
X96520000Y-66040000D03*
D15*
X96520000Y-76200000D03*
G04 #@! TD*
D18*
G04 #@! TO.C,R41*
X99060000Y-78740000D03*
D15*
X99060000Y-88900000D03*
G04 #@! TD*
D18*
G04 #@! TO.C,R38*
X104140000Y-66040000D03*
D15*
X104140000Y-76200000D03*
G04 #@! TD*
D18*
G04 #@! TO.C,R37*
X106680000Y-78740000D03*
D15*
X106680000Y-88900000D03*
G04 #@! TD*
D18*
G04 #@! TO.C,R36*
X109220000Y-66040000D03*
D15*
X109220000Y-76200000D03*
G04 #@! TD*
D18*
G04 #@! TO.C,R35*
X111760000Y-78740000D03*
D15*
X111760000Y-88900000D03*
G04 #@! TD*
D18*
G04 #@! TO.C,R34*
X114300000Y-66040000D03*
D15*
X114300000Y-76200000D03*
G04 #@! TD*
D18*
G04 #@! TO.C,R33*
X116840000Y-78740000D03*
D15*
X116840000Y-88900000D03*
G04 #@! TD*
D18*
G04 #@! TO.C,R32*
X119380000Y-66040000D03*
D15*
X119380000Y-76200000D03*
G04 #@! TD*
D18*
G04 #@! TO.C,R31*
X121920000Y-78740000D03*
D15*
X121920000Y-88900000D03*
G04 #@! TD*
D18*
G04 #@! TO.C,R28*
X127000000Y-66040000D03*
D15*
X127000000Y-76200000D03*
G04 #@! TD*
D18*
G04 #@! TO.C,R27*
X129540000Y-78740000D03*
D15*
X129540000Y-88900000D03*
G04 #@! TD*
D18*
G04 #@! TO.C,R26*
X132080000Y-66040000D03*
D15*
X132080000Y-76200000D03*
G04 #@! TD*
D18*
G04 #@! TO.C,R25*
X134620000Y-78740000D03*
D15*
X134620000Y-88900000D03*
G04 #@! TD*
D18*
G04 #@! TO.C,R24*
X137160000Y-66040000D03*
D15*
X137160000Y-76200000D03*
G04 #@! TD*
D18*
G04 #@! TO.C,R23*
X139700000Y-78740000D03*
D15*
X139700000Y-88900000D03*
G04 #@! TD*
D18*
G04 #@! TO.C,R22*
X142240000Y-66040000D03*
D15*
X142240000Y-76200000D03*
G04 #@! TD*
D18*
G04 #@! TO.C,R21*
X144780000Y-78740000D03*
D15*
X144780000Y-88900000D03*
G04 #@! TD*
D18*
G04 #@! TO.C,R18*
X149860000Y-66040000D03*
D15*
X149860000Y-76200000D03*
G04 #@! TD*
D18*
G04 #@! TO.C,R17*
X152400000Y-78740000D03*
D15*
X152400000Y-88900000D03*
G04 #@! TD*
D18*
G04 #@! TO.C,R16*
X154940000Y-66040000D03*
D15*
X154940000Y-76200000D03*
G04 #@! TD*
D18*
G04 #@! TO.C,R15*
X157480000Y-78740000D03*
D15*
X157480000Y-88900000D03*
G04 #@! TD*
D18*
G04 #@! TO.C,R14*
X160020000Y-66040000D03*
D15*
X160020000Y-76200000D03*
G04 #@! TD*
D18*
G04 #@! TO.C,R13*
X162560000Y-78740000D03*
D15*
X162560000Y-88900000D03*
G04 #@! TD*
D18*
G04 #@! TO.C,R12*
X165100000Y-66040000D03*
D15*
X165100000Y-76200000D03*
G04 #@! TD*
D18*
G04 #@! TO.C,R11*
X167640000Y-78740000D03*
D15*
X167640000Y-88900000D03*
G04 #@! TD*
D18*
G04 #@! TO.C,R1*
X124460000Y-106680000D03*
D15*
X134620000Y-106680000D03*
G04 #@! TD*
D18*
G04 #@! TO.C,U4*
X96520000Y-101600000D03*
X78740000Y-93980000D03*
X93980000Y-101600000D03*
X81280000Y-93980000D03*
X91440000Y-101600000D03*
X83820000Y-93980000D03*
X88900000Y-101600000D03*
X86360000Y-93980000D03*
X86360000Y-101600000D03*
X88900000Y-93980000D03*
X83820000Y-101600000D03*
X91440000Y-93980000D03*
X81280000Y-101600000D03*
X93980000Y-93980000D03*
X78740000Y-101600000D03*
D19*
X96520000Y-93980000D03*
G04 #@! TD*
D18*
G04 #@! TO.C,U3*
X119380000Y-101600000D03*
X101600000Y-93980000D03*
X116840000Y-101600000D03*
X104140000Y-93980000D03*
X114300000Y-101600000D03*
X106680000Y-93980000D03*
X111760000Y-101600000D03*
X109220000Y-93980000D03*
X109220000Y-101600000D03*
X111760000Y-93980000D03*
X106680000Y-101600000D03*
X114300000Y-93980000D03*
X104140000Y-101600000D03*
X116840000Y-93980000D03*
X101600000Y-101600000D03*
D19*
X119380000Y-93980000D03*
G04 #@! TD*
D18*
G04 #@! TO.C,U2*
X142240000Y-101600000D03*
X124460000Y-93980000D03*
X139700000Y-101600000D03*
X127000000Y-93980000D03*
X137160000Y-101600000D03*
X129540000Y-93980000D03*
X134620000Y-101600000D03*
X132080000Y-93980000D03*
X132080000Y-101600000D03*
X134620000Y-93980000D03*
X129540000Y-101600000D03*
X137160000Y-93980000D03*
X127000000Y-101600000D03*
X139700000Y-93980000D03*
X124460000Y-101600000D03*
D19*
X142240000Y-93980000D03*
G04 #@! TD*
D18*
G04 #@! TO.C,U1*
X165100000Y-101600000D03*
X147320000Y-93980000D03*
X162560000Y-101600000D03*
X149860000Y-93980000D03*
X160020000Y-101600000D03*
X152400000Y-93980000D03*
X157480000Y-101600000D03*
X154940000Y-93980000D03*
X154940000Y-101600000D03*
X157480000Y-93980000D03*
X152400000Y-101600000D03*
X160020000Y-93980000D03*
X149860000Y-101600000D03*
X162560000Y-93980000D03*
X147320000Y-101600000D03*
D19*
X165100000Y-93980000D03*
G04 #@! TD*
D13*
G04 #@! TO.C,JP1*
X147320000Y-106680000D03*
X149860000Y-106680000D03*
D14*
X152400000Y-106680000D03*
G04 #@! TD*
D20*
G04 #@! TO.C,H4*
X167640000Y-119380000D03*
G04 #@! TD*
G04 #@! TO.C,H3*
X78740000Y-119380000D03*
G04 #@! TD*
G04 #@! TO.C,H2*
X167640000Y-45720000D03*
G04 #@! TD*
G04 #@! TO.C,H1*
X78740000Y-45720000D03*
G04 #@! TD*
D15*
G04 #@! TO.C,C5*
X129500000Y-119380000D03*
D19*
X127000000Y-119380000D03*
G04 #@! TD*
M02*
